<svg xmlns="http://www.w3.org/2000/svg" viewBox="0 0 900 1200" preserveAspectRatio="xMidYMid slice">
  <rect width="900" height="1200" fill="#6e0e1e" />
  <g stroke="#6e0e1e" stroke-width="2" stroke-linejoin="round">
    <g transform="translate(70 92)">
      <path d="M0 0 92 54 0 108-92 54Z" fill="#fdb913" />
      <path d="M-92 54 0 108V220L-92 166Z" fill="#4f0916" />
      <path d="M0 108 92 54V166L0 220Z" fill="#8f172a" />
    </g>
    <g transform="translate(330 92)">
      <path d="M0 0 92 54 0 108-92 54Z" fill="#9b1d31" />
      <path d="M-92 54 0 108V220L-92 166Z" fill="#570918" />
      <path d="M0 108 92 54V166L0 220Z" fill="#fdb913" />
    </g>
    <g transform="translate(590 92)">
      <path d="M0 0 92 54 0 108-92 54Z" fill="#262326" />
      <path d="M-92 54 0 108V220L-92 166Z" fill="#4f0916" />
      <path d="M0 108 92 54V166L0 220Z" fill="#8f172a" />
    </g>
    <g transform="translate(850 92)">
      <path d="M0 0 92 54 0 108-92 54Z" fill="#fdb913" />
      <path d="M-92 54 0 108V220L-92 166Z" fill="#731020" />
      <path d="M0 108 92 54V166L0 220Z" fill="#a9abad" />
    </g>
    <g transform="translate(200 360)">
      <path d="M0 0 92 54 0 108-92 54Z" fill="#a9abad" />
      <path d="M-92 54 0 108V220L-92 166Z" fill="#5a0a18" />
      <path d="M0 108 92 54V166L0 220Z" fill="#8f172a" />
    </g>
    <g transform="translate(460 360)">
      <path d="M0 0 92 54 0 108-92 54Z" fill="#fdb913" />
      <path d="M-92 54 0 108V220L-92 166Z" fill="#6e0e1e" />
      <path d="M0 108 92 54V166L0 220Z" fill="#981c2f" />
    </g>
    <g transform="translate(720 360)">
      <path d="M0 0 92 54 0 108-92 54Z" fill="#8f172a" />
      <path d="M-92 54 0 108V220L-92 166Z" fill="#262326" />
      <path d="M0 108 92 54V166L0 220Z" fill="#fdb913" />
    </g>
    <g transform="translate(70 628)">
      <path d="M0 0 92 54 0 108-92 54Z" fill="#8f172a" />
      <path d="M-92 54 0 108V220L-92 166Z" fill="#fdb913" />
      <path d="M0 108 92 54V166L0 220Z" fill="#570918" />
    </g>
    <g transform="translate(330 628)">
      <path d="M0 0 92 54 0 108-92 54Z" fill="#262326" />
      <path d="M-92 54 0 108V220L-92 166Z" fill="#731020" />
      <path d="M0 108 92 54V166L0 220Z" fill="#a9abad" />
    </g>
    <g transform="translate(590 628)">
      <path d="M0 0 92 54 0 108-92 54Z" fill="#fdb913" />
      <path d="M-92 54 0 108V220L-92 166Z" fill="#4f0916" />
      <path d="M0 108 92 54V166L0 220Z" fill="#8f172a" />
    </g>
    <g transform="translate(850 628)">
      <path d="M0 0 92 54 0 108-92 54Z" fill="#981c2f" />
      <path d="M-92 54 0 108V220L-92 166Z" fill="#6e0e1e" />
      <path d="M0 108 92 54V166L0 220Z" fill="#fdb913" />
    </g>
    <g transform="translate(200 896)">
      <path d="M0 0 92 54 0 108-92 54Z" fill="#fdb913" />
      <path d="M-92 54 0 108V220L-92 166Z" fill="#8f172a" />
      <path d="M0 108 92 54V166L0 220Z" fill="#4f0916" />
    </g>
    <g transform="translate(460 896)">
      <path d="M0 0 92 54 0 108-92 54Z" fill="#a9abad" />
      <path d="M-92 54 0 108V220L-92 166Z" fill="#570918" />
      <path d="M0 108 92 54V166L0 220Z" fill="#981c2f" />
    </g>
    <g transform="translate(720 896)">
      <path d="M0 0 92 54 0 108-92 54Z" fill="#8f172a" />
      <path d="M-92 54 0 108V220L-92 166Z" fill="#fdb913" />
      <path d="M0 108 92 54V166L0 220Z" fill="#262326" />
    </g>
  </g>
</svg>
